<mxfile host="65bd71144e">
    <diagram id="H5BTK-03zMF-pPfmUUHK" name="ARCH">
        <mxGraphModel dx="1022" dy="780" grid="1" gridSize="10" guides="1" tooltips="1" connect="1" arrows="1" fold="1" page="1" pageScale="1" pageWidth="1169" pageHeight="827" math="0" shadow="0">
            <root>
                <mxCell id="3_e2inmt6cPeY3t7yM-7-0"/>
                <mxCell id="3_e2inmt6cPeY3t7yM-7-1" parent="3_e2inmt6cPeY3t7yM-7-0"/>
                <mxCell id="sEHnplj1LqqBpRYEtFGL-0" value="Scope" style="shape=process2;fixedSize=1;size=5;fontStyle=1;" parent="3_e2inmt6cPeY3t7yM-7-1" vertex="1">
                    <mxGeometry x="80" y="80" width="140" height="40" as="geometry"/>
                </mxCell>
                <mxCell id="BBaqSIlewuimaBMIqYNM-0" value="Symbol" style="shape=process2;fixedSize=1;size=5;fontStyle=1;" parent="3_e2inmt6cPeY3t7yM-7-1" vertex="1">
                    <mxGeometry x="360" y="80" width="140" height="40" as="geometry"/>
                </mxCell>
                <mxCell id="BBaqSIlewuimaBMIqYNM-7" value="Has" style="endArrow=none;startArrow=diamondThin;endFill=0;startFill=0;html=1;verticalAlign=bottom;labelBackgroundColor=none;strokeWidth=1;startSize=8;endSize=8;" parent="3_e2inmt6cPeY3t7yM-7-1" edge="1">
                    <mxGeometry x="-0.7143" width="160" relative="1" as="geometry">
                        <mxPoint x="220" y="99.5" as="sourcePoint"/>
                        <mxPoint x="360" y="100" as="targetPoint"/>
                        <mxPoint as="offset"/>
                    </mxGeometry>
                </mxCell>
            </root>
        </mxGraphModel>
    </diagram>
    <diagram id="tW900IZce7pm6WYsD04Y" name="SYM">
        <mxGraphModel dx="1022" dy="780" grid="1" gridSize="10" guides="1" tooltips="1" connect="1" arrows="1" fold="1" page="1" pageScale="1" pageWidth="1169" pageHeight="827" math="0" shadow="0">
            <root>
                <mxCell id="0"/>
                <mxCell id="1" parent="0"/>
                <mxCell id="10" value="Symbol" style="shape=process2;fixedSize=1;size=5;fontStyle=1;" parent="1" vertex="1">
                    <mxGeometry x="200" y="80" width="140" height="40" as="geometry"/>
                </mxCell>
                <mxCell id="bd49CCfB1BGO68vcPQ3w-18" value="Type" style="shape=process2;fixedSize=1;size=5;fontStyle=1;" parent="1" vertex="1">
                    <mxGeometry x="400" y="80" width="140" height="40" as="geometry"/>
                </mxCell>
                <mxCell id="bd49CCfB1BGO68vcPQ3w-23" value="VariableSymbol" style="shape=process2;fixedSize=1;size=5;fontStyle=1;" parent="1" vertex="1">
                    <mxGeometry x="100" y="200" width="140" height="40" as="geometry"/>
                </mxCell>
                <mxCell id="bd49CCfB1BGO68vcPQ3w-24" value="BuiltInTypeSymbol" style="shape=process2;fixedSize=1;size=5;fontStyle=1;" parent="1" vertex="1">
                    <mxGeometry x="280" y="200" width="140" height="40" as="geometry"/>
                </mxCell>
                <mxCell id="bd49CCfB1BGO68vcPQ3w-25" value="Scope" style="shape=process2;fixedSize=1;size=5;fontStyle=1;" parent="1" vertex="1">
                    <mxGeometry x="640" y="80" width="140" height="40" as="geometry"/>
                </mxCell>
                <mxCell id="bd49CCfB1BGO68vcPQ3w-26" value="SymbolWithScope" style="shape=process2;fixedSize=1;size=5;fontStyle=1;" parent="1" vertex="1">
                    <mxGeometry x="460" y="200" width="140" height="40" as="geometry"/>
                </mxCell>
                <mxCell id="bd49CCfB1BGO68vcPQ3w-70" value="" style="html=1;verticalAlign=bottom;labelBackgroundColor=none;endArrow=block;endFill=1;exitX=0.25;exitY=1;exitDx=0;exitDy=0;entryX=0.75;entryY=0;entryDx=0;entryDy=0;dashed=1;" parent="1" source="10" target="bd49CCfB1BGO68vcPQ3w-23" edge="1">
                    <mxGeometry width="160" relative="1" as="geometry">
                        <mxPoint x="150" y="330" as="sourcePoint"/>
                        <mxPoint x="310" y="330" as="targetPoint"/>
                    </mxGeometry>
                </mxCell>
                <mxCell id="bd49CCfB1BGO68vcPQ3w-71" value="" style="html=1;verticalAlign=bottom;labelBackgroundColor=none;endArrow=block;endFill=1;exitX=0.5;exitY=1;exitDx=0;exitDy=0;entryX=0.25;entryY=0;entryDx=0;entryDy=0;dashed=1;" parent="1" source="10" target="bd49CCfB1BGO68vcPQ3w-24" edge="1">
                    <mxGeometry width="160" relative="1" as="geometry">
                        <mxPoint x="340" y="150" as="sourcePoint"/>
                        <mxPoint x="500" y="150" as="targetPoint"/>
                    </mxGeometry>
                </mxCell>
                <mxCell id="bd49CCfB1BGO68vcPQ3w-72" value="" style="html=1;verticalAlign=bottom;labelBackgroundColor=none;endArrow=block;endFill=1;exitX=0.75;exitY=1;exitDx=0;exitDy=0;entryX=0.25;entryY=0;entryDx=0;entryDy=0;dashed=1;" parent="1" source="10" target="bd49CCfB1BGO68vcPQ3w-26" edge="1">
                    <mxGeometry width="160" relative="1" as="geometry">
                        <mxPoint x="280" y="130" as="sourcePoint"/>
                        <mxPoint x="325" y="210" as="targetPoint"/>
                    </mxGeometry>
                </mxCell>
                <mxCell id="bd49CCfB1BGO68vcPQ3w-73" value="" style="html=1;verticalAlign=bottom;labelBackgroundColor=none;endArrow=block;endFill=1;exitX=0.5;exitY=1;exitDx=0;exitDy=0;entryX=0.75;entryY=0;entryDx=0;entryDy=0;dashed=1;" parent="1" source="bd49CCfB1BGO68vcPQ3w-18" target="bd49CCfB1BGO68vcPQ3w-24" edge="1">
                    <mxGeometry width="160" relative="1" as="geometry">
                        <mxPoint x="315" y="130" as="sourcePoint"/>
                        <mxPoint x="505" y="210" as="targetPoint"/>
                    </mxGeometry>
                </mxCell>
                <mxCell id="bd49CCfB1BGO68vcPQ3w-74" value="BaseScope" style="shape=process2;fixedSize=1;size=5;fontStyle=1;" parent="1" vertex="1">
                    <mxGeometry x="770" y="200" width="140" height="40" as="geometry"/>
                </mxCell>
                <mxCell id="bd49CCfB1BGO68vcPQ3w-75" value="GlobalScope" style="shape=process2;fixedSize=1;size=5;fontStyle=1;" parent="1" vertex="1">
                    <mxGeometry x="660" y="320" width="140" height="40" as="geometry"/>
                </mxCell>
                <mxCell id="bd49CCfB1BGO68vcPQ3w-76" value="LocalScope" style="shape=process2;fixedSize=1;size=5;fontStyle=1;" parent="1" vertex="1">
                    <mxGeometry x="880" y="320" width="140" height="40" as="geometry"/>
                </mxCell>
                <mxCell id="bd49CCfB1BGO68vcPQ3w-77" value="" style="html=1;verticalAlign=bottom;labelBackgroundColor=none;endArrow=block;endFill=1;exitX=0.25;exitY=1;exitDx=0;exitDy=0;entryX=0.75;entryY=0;entryDx=0;entryDy=0;dashed=1;" parent="1" source="bd49CCfB1BGO68vcPQ3w-74" target="bd49CCfB1BGO68vcPQ3w-75" edge="1">
                    <mxGeometry width="160" relative="1" as="geometry">
                        <mxPoint x="775" y="400" as="sourcePoint"/>
                        <mxPoint x="690" y="480" as="targetPoint"/>
                    </mxGeometry>
                </mxCell>
                <mxCell id="bd49CCfB1BGO68vcPQ3w-78" value="" style="html=1;verticalAlign=bottom;labelBackgroundColor=none;endArrow=block;endFill=1;exitX=0.75;exitY=1;exitDx=0;exitDy=0;entryX=0.25;entryY=0;entryDx=0;entryDy=0;dashed=1;" parent="1" source="bd49CCfB1BGO68vcPQ3w-74" target="bd49CCfB1BGO68vcPQ3w-76" edge="1">
                    <mxGeometry width="160" relative="1" as="geometry">
                        <mxPoint x="785" y="250" as="sourcePoint"/>
                        <mxPoint x="755" y="330" as="targetPoint"/>
                    </mxGeometry>
                </mxCell>
                <mxCell id="bd49CCfB1BGO68vcPQ3w-79" value="" style="html=1;verticalAlign=bottom;labelBackgroundColor=none;endArrow=block;endFill=1;exitX=0.75;exitY=1;exitDx=0;exitDy=0;entryX=0.5;entryY=0;entryDx=0;entryDy=0;dashed=1;" parent="1" source="bd49CCfB1BGO68vcPQ3w-25" target="bd49CCfB1BGO68vcPQ3w-74" edge="1">
                    <mxGeometry width="160" relative="1" as="geometry">
                        <mxPoint x="785" y="250" as="sourcePoint"/>
                        <mxPoint x="755" y="330" as="targetPoint"/>
                    </mxGeometry>
                </mxCell>
                <mxCell id="bd49CCfB1BGO68vcPQ3w-80" value="" style="html=1;verticalAlign=bottom;labelBackgroundColor=none;endArrow=block;endFill=1;entryX=0.75;entryY=0;entryDx=0;entryDy=0;dashed=1;" parent="1" target="bd49CCfB1BGO68vcPQ3w-26" edge="1">
                    <mxGeometry width="160" relative="1" as="geometry">
                        <mxPoint x="680" y="120" as="sourcePoint"/>
                        <mxPoint x="820" y="210" as="targetPoint"/>
                    </mxGeometry>
                </mxCell>
                <mxCell id="bd49CCfB1BGO68vcPQ3w-82" value="StructSymbol" style="shape=process2;fixedSize=1;size=5;fontStyle=1;" parent="1" vertex="1">
                    <mxGeometry x="500" y="320" width="140" height="40" as="geometry"/>
                </mxCell>
                <mxCell id="bd49CCfB1BGO68vcPQ3w-83" value="MethodSymbol" style="shape=process2;fixedSize=1;size=5;fontStyle=1;" parent="1" vertex="1">
                    <mxGeometry x="300" y="320" width="140" height="40" as="geometry"/>
                </mxCell>
                <mxCell id="bd49CCfB1BGO68vcPQ3w-84" value="" style="html=1;verticalAlign=bottom;labelBackgroundColor=none;endArrow=block;endFill=1;entryX=0.5;entryY=0;entryDx=0;entryDy=0;dashed=1;exitX=0.25;exitY=1;exitDx=0;exitDy=0;" parent="1" source="bd49CCfB1BGO68vcPQ3w-26" target="bd49CCfB1BGO68vcPQ3w-83" edge="1">
                    <mxGeometry width="160" relative="1" as="geometry">
                        <mxPoint x="500" y="260" as="sourcePoint"/>
                        <mxPoint x="385" y="340" as="targetPoint"/>
                    </mxGeometry>
                </mxCell>
                <mxCell id="bd49CCfB1BGO68vcPQ3w-85" value="" style="html=1;verticalAlign=bottom;labelBackgroundColor=none;endArrow=block;endFill=1;entryX=0.5;entryY=0;entryDx=0;entryDy=0;dashed=1;exitX=0.75;exitY=1;exitDx=0;exitDy=0;" parent="1" source="bd49CCfB1BGO68vcPQ3w-26" target="bd49CCfB1BGO68vcPQ3w-82" edge="1">
                    <mxGeometry width="160" relative="1" as="geometry">
                        <mxPoint x="505" y="250" as="sourcePoint"/>
                        <mxPoint x="380" y="330" as="targetPoint"/>
                    </mxGeometry>
                </mxCell>
                <mxCell id="bd49CCfB1BGO68vcPQ3w-86" value="" style="html=1;verticalAlign=bottom;labelBackgroundColor=none;endArrow=block;endFill=1;entryX=0.75;entryY=0;entryDx=0;entryDy=0;dashed=1;exitX=0.75;exitY=1;exitDx=0;exitDy=0;curved=1;" parent="1" source="bd49CCfB1BGO68vcPQ3w-18" target="bd49CCfB1BGO68vcPQ3w-82" edge="1">
                    <mxGeometry width="160" relative="1" as="geometry">
                        <mxPoint x="575" y="250" as="sourcePoint"/>
                        <mxPoint x="580" y="330" as="targetPoint"/>
                        <Array as="points">
                            <mxPoint x="670" y="160"/>
                        </Array>
                    </mxGeometry>
                </mxCell>
                <mxCell id="11" value="HasType" style="shape=process2;fixedSize=1;size=5;fontStyle=1;" parent="1" vertex="1">
                    <mxGeometry x="980" y="40" width="140" height="40" as="geometry"/>
                </mxCell>
                <mxCell id="33" value="HasType" style="html=1;verticalAlign=bottom;labelBackgroundColor=none;endArrow=oval;endFill=0;endSize=8;exitX=0;exitY=0.25;exitDx=0;exitDy=0;" parent="1" source="bd49CCfB1BGO68vcPQ3w-23" edge="1">
                    <mxGeometry x="1" width="160" relative="1" as="geometry">
                        <mxPoint x="50" y="256" as="sourcePoint"/>
                        <mxPoint x="80" y="210" as="targetPoint"/>
                        <mxPoint as="offset"/>
                    </mxGeometry>
                </mxCell>
                <mxCell id="kL1SgU0NCju7qFKspajz-33" value="BuiltInMethodSymbol" style="shape=process2;fixedSize=1;size=5;fontStyle=1;" parent="1" vertex="1">
                    <mxGeometry x="100" y="280" width="140" height="40" as="geometry"/>
                </mxCell>
                <mxCell id="kL1SgU0NCju7qFKspajz-34" value="" style="html=1;verticalAlign=bottom;labelBackgroundColor=none;endArrow=block;endFill=1;exitX=0.5;exitY=1;exitDx=0;exitDy=0;entryX=1;entryY=0.5;entryDx=0;entryDy=0;dashed=1;curved=1;" parent="1" source="10" target="kL1SgU0NCju7qFKspajz-33" edge="1">
                    <mxGeometry width="160" relative="1" as="geometry">
                        <mxPoint x="245" y="130" as="sourcePoint"/>
                        <mxPoint x="215" y="210" as="targetPoint"/>
                        <Array as="points">
                            <mxPoint x="270" y="220"/>
                            <mxPoint x="260" y="290"/>
                        </Array>
                    </mxGeometry>
                </mxCell>
            </root>
        </mxGraphModel>
    </diagram>
    <diagram id="VsSz3eRSqpDLT172W072" name="AST">
        <mxGraphModel dx="1022" dy="1607" grid="1" gridSize="10" guides="1" tooltips="1" connect="1" arrows="1" fold="1" page="1" pageScale="1" pageWidth="1169" pageHeight="827" math="0" shadow="0">
            <root>
                <mxCell id="6k3I9Da40MqYxhiKzU5S-0"/>
                <mxCell id="6k3I9Da40MqYxhiKzU5S-1" parent="6k3I9Da40MqYxhiKzU5S-0"/>
                <mxCell id="6k3I9Da40MqYxhiKzU5S-2" value="AST" style="shape=process2;fixedSize=1;size=5;fontStyle=1;" parent="6k3I9Da40MqYxhiKzU5S-1" vertex="1">
                    <mxGeometry x="560" y="-40" width="140" height="40" as="geometry"/>
                </mxCell>
                <mxCell id="6k3I9Da40MqYxhiKzU5S-3" value="Expr" style="shape=process2;fixedSize=1;size=5;fontStyle=1;" parent="6k3I9Da40MqYxhiKzU5S-1" vertex="1">
                    <mxGeometry x="400" y="120" width="140" height="40" as="geometry"/>
                </mxCell>
                <mxCell id="FsSBydXHaxrfXErNBL3K-0" value="" style="html=1;verticalAlign=bottom;labelBackgroundColor=none;endArrow=block;endFill=1;exitX=0;exitY=0.5;exitDx=0;exitDy=0;entryX=0.5;entryY=0;entryDx=0;entryDy=0;dashed=1;" parent="6k3I9Da40MqYxhiKzU5S-1" source="3kuACH0IYjx14G8dIV5d-5" target="6k3I9Da40MqYxhiKzU5S-3" edge="1">
                    <mxGeometry width="160" relative="1" as="geometry">
                        <mxPoint x="270" y="120" as="sourcePoint"/>
                        <mxPoint x="315" y="200" as="targetPoint"/>
                    </mxGeometry>
                </mxCell>
                <mxCell id="FsSBydXHaxrfXErNBL3K-1" value="Add" style="shape=process2;fixedSize=1;size=5;fontStyle=1;" parent="6k3I9Da40MqYxhiKzU5S-1" vertex="1">
                    <mxGeometry x="340" y="240" width="140" height="40" as="geometry"/>
                </mxCell>
                <mxCell id="FsSBydXHaxrfXErNBL3K-3" value="Mul" style="shape=process2;fixedSize=1;size=5;fontStyle=1;" parent="6k3I9Da40MqYxhiKzU5S-1" vertex="1">
                    <mxGeometry x="340" y="320" width="140" height="40" as="geometry"/>
                </mxCell>
                <mxCell id="FsSBydXHaxrfXErNBL3K-5" value="IntVal" style="shape=process2;fixedSize=1;size=5;fontStyle=1;" parent="6k3I9Da40MqYxhiKzU5S-1" vertex="1">
                    <mxGeometry x="140" y="240" width="140" height="40" as="geometry"/>
                </mxCell>
                <mxCell id="FsSBydXHaxrfXErNBL3K-6" value="" style="html=1;verticalAlign=bottom;labelBackgroundColor=none;endArrow=block;endFill=1;exitX=0.25;exitY=1;exitDx=0;exitDy=0;entryX=0.5;entryY=0;entryDx=0;entryDy=0;dashed=1;" parent="6k3I9Da40MqYxhiKzU5S-1" source="6k3I9Da40MqYxhiKzU5S-3" target="FsSBydXHaxrfXErNBL3K-5" edge="1">
                    <mxGeometry width="160" relative="1" as="geometry">
                        <mxPoint x="445" y="170" as="sourcePoint"/>
                        <mxPoint x="390" y="310" as="targetPoint"/>
                    </mxGeometry>
                </mxCell>
                <mxCell id="3kuACH0IYjx14G8dIV5d-2" value="Init" style="shape=process2;fixedSize=1;size=5;fontStyle=1;" parent="6k3I9Da40MqYxhiKzU5S-1" vertex="1">
                    <mxGeometry x="340" y="560" width="140" height="40" as="geometry"/>
                </mxCell>
                <mxCell id="3kuACH0IYjx14G8dIV5d-5" value="Stat" style="shape=process2;fixedSize=1;size=5;fontStyle=1;" parent="6k3I9Da40MqYxhiKzU5S-1" vertex="1">
                    <mxGeometry x="640" y="40" width="140" height="40" as="geometry"/>
                </mxCell>
                <mxCell id="3kuACH0IYjx14G8dIV5d-7" value="" style="html=1;verticalAlign=bottom;labelBackgroundColor=none;endArrow=block;endFill=1;exitX=0.75;exitY=1;exitDx=0;exitDy=0;entryX=0.5;entryY=0;entryDx=0;entryDy=0;dashed=1;" parent="6k3I9Da40MqYxhiKzU5S-1" source="6k3I9Da40MqYxhiKzU5S-2" target="3kuACH0IYjx14G8dIV5d-5" edge="1">
                    <mxGeometry width="160" relative="1" as="geometry">
                        <mxPoint x="565" y="90" as="sourcePoint"/>
                        <mxPoint x="480" y="130" as="targetPoint"/>
                    </mxGeometry>
                </mxCell>
                <mxCell id="3kuACH0IYjx14G8dIV5d-8" value="Var" style="shape=process2;fixedSize=1;size=5;fontStyle=1;" parent="6k3I9Da40MqYxhiKzU5S-1" vertex="1">
                    <mxGeometry x="340" y="400" width="140" height="40" as="geometry"/>
                </mxCell>
                <mxCell id="H4EgMhZY4YwTOoACoMew-0" value="ArgDecl" style="shape=process2;fixedSize=1;size=5;fontStyle=1;" parent="6k3I9Da40MqYxhiKzU5S-1" vertex="1">
                    <mxGeometry x="920" y="394" width="140" height="40" as="geometry"/>
                </mxCell>
                <mxCell id="H4EgMhZY4YwTOoACoMew-1" value="Assign" style="shape=process2;fixedSize=1;size=5;fontStyle=1;" parent="6k3I9Da40MqYxhiKzU5S-1" vertex="1">
                    <mxGeometry x="720" y="240" width="140" height="40" as="geometry"/>
                </mxCell>
                <mxCell id="H4EgMhZY4YwTOoACoMew-2" value="" style="html=1;verticalAlign=bottom;labelBackgroundColor=none;endArrow=block;endFill=1;entryX=0;entryY=0.5;entryDx=0;entryDy=0;dashed=1;exitX=0.25;exitY=1;exitDx=0;exitDy=0;" parent="6k3I9Da40MqYxhiKzU5S-1" source="3kuACH0IYjx14G8dIV5d-5" target="H4EgMhZY4YwTOoACoMew-1" edge="1">
                    <mxGeometry width="160" relative="1" as="geometry">
                        <mxPoint x="480" y="170" as="sourcePoint"/>
                        <mxPoint x="485" y="250" as="targetPoint"/>
                    </mxGeometry>
                </mxCell>
                <mxCell id="H4EgMhZY4YwTOoACoMew-4" value="Block" style="shape=process2;fixedSize=1;size=5;fontStyle=1;" parent="6k3I9Da40MqYxhiKzU5S-1" vertex="1">
                    <mxGeometry x="720" y="320" width="140" height="40" as="geometry"/>
                </mxCell>
                <mxCell id="H4EgMhZY4YwTOoACoMew-5" value="" style="html=1;verticalAlign=bottom;labelBackgroundColor=none;endArrow=block;endFill=1;dashed=1;exitX=0.25;exitY=1;exitDx=0;exitDy=0;entryX=0;entryY=0.5;entryDx=0;entryDy=0;curved=1;" parent="6k3I9Da40MqYxhiKzU5S-1" source="3kuACH0IYjx14G8dIV5d-5" target="H4EgMhZY4YwTOoACoMew-4" edge="1">
                    <mxGeometry width="160" relative="1" as="geometry">
                        <mxPoint x="720" y="170" as="sourcePoint"/>
                        <mxPoint x="950" y="200" as="targetPoint"/>
                        <Array as="points">
                            <mxPoint x="690" y="300"/>
                        </Array>
                    </mxGeometry>
                </mxCell>
                <mxCell id="H4EgMhZY4YwTOoACoMew-8" value="Call" style="shape=process2;fixedSize=1;size=5;fontStyle=1;" parent="6k3I9Da40MqYxhiKzU5S-1" vertex="1">
                    <mxGeometry x="720" y="400" width="140" height="40" as="geometry"/>
                </mxCell>
                <mxCell id="H4EgMhZY4YwTOoACoMew-9" value="" style="html=1;verticalAlign=bottom;labelBackgroundColor=none;endArrow=block;endFill=1;dashed=1;exitX=0.25;exitY=1;exitDx=0;exitDy=0;entryX=0;entryY=0.5;entryDx=0;entryDy=0;curved=1;" parent="6k3I9Da40MqYxhiKzU5S-1" source="3kuACH0IYjx14G8dIV5d-5" target="H4EgMhZY4YwTOoACoMew-8" edge="1">
                    <mxGeometry width="160" relative="1" as="geometry">
                        <mxPoint x="685" y="170" as="sourcePoint"/>
                        <mxPoint x="730" y="350" as="targetPoint"/>
                        <Array as="points">
                            <mxPoint x="660" y="300"/>
                        </Array>
                    </mxGeometry>
                </mxCell>
                <mxCell id="H4EgMhZY4YwTOoACoMew-10" value="Col" style="shape=process2;fixedSize=1;size=5;fontStyle=1;" parent="6k3I9Da40MqYxhiKzU5S-1" vertex="1">
                    <mxGeometry x="340" y="480" width="140" height="40" as="geometry"/>
                </mxCell>
                <mxCell id="H4EgMhZY4YwTOoACoMew-12" value="Decl" style="shape=process2;fixedSize=1;size=5;fontStyle=1;" parent="6k3I9Da40MqYxhiKzU5S-1" vertex="1">
                    <mxGeometry x="720" y="480" width="140" height="40" as="geometry"/>
                </mxCell>
                <mxCell id="H4EgMhZY4YwTOoACoMew-13" value="" style="html=1;verticalAlign=bottom;labelBackgroundColor=none;endArrow=block;endFill=1;dashed=1;exitX=0.25;exitY=1;exitDx=0;exitDy=0;entryX=0;entryY=0.5;entryDx=0;entryDy=0;curved=1;" parent="6k3I9Da40MqYxhiKzU5S-1" source="3kuACH0IYjx14G8dIV5d-5" target="H4EgMhZY4YwTOoACoMew-12" edge="1">
                    <mxGeometry width="160" relative="1" as="geometry">
                        <mxPoint x="685" y="170" as="sourcePoint"/>
                        <mxPoint x="730" y="430" as="targetPoint"/>
                        <Array as="points">
                            <mxPoint x="640" y="310"/>
                        </Array>
                    </mxGeometry>
                </mxCell>
                <mxCell id="H4EgMhZY4YwTOoACoMew-14" value="If" style="shape=process2;fixedSize=1;size=5;fontStyle=1;" parent="6k3I9Da40MqYxhiKzU5S-1" vertex="1">
                    <mxGeometry x="720" y="560" width="140" height="40" as="geometry"/>
                </mxCell>
                <mxCell id="H4EgMhZY4YwTOoACoMew-15" value="" style="html=1;verticalAlign=bottom;labelBackgroundColor=none;endArrow=block;endFill=1;dashed=1;exitX=0.25;exitY=1;exitDx=0;exitDy=0;entryX=0;entryY=0.5;entryDx=0;entryDy=0;curved=1;" parent="6k3I9Da40MqYxhiKzU5S-1" source="3kuACH0IYjx14G8dIV5d-5" target="H4EgMhZY4YwTOoACoMew-14" edge="1">
                    <mxGeometry width="160" relative="1" as="geometry">
                        <mxPoint x="685" y="170" as="sourcePoint"/>
                        <mxPoint x="730" y="510" as="targetPoint"/>
                        <Array as="points">
                            <mxPoint x="630" y="320"/>
                        </Array>
                    </mxGeometry>
                </mxCell>
                <mxCell id="H4EgMhZY4YwTOoACoMew-16" value="" style="html=1;verticalAlign=bottom;labelBackgroundColor=none;endArrow=block;endFill=1;exitX=0.75;exitY=1;exitDx=0;exitDy=0;entryX=1;entryY=0.5;entryDx=0;entryDy=0;dashed=1;curved=1;" parent="6k3I9Da40MqYxhiKzU5S-1" source="6k3I9Da40MqYxhiKzU5S-3" target="3kuACH0IYjx14G8dIV5d-2" edge="1">
                    <mxGeometry width="160" relative="1" as="geometry">
                        <mxPoint x="445" y="170" as="sourcePoint"/>
                        <mxPoint x="490" y="350" as="targetPoint"/>
                        <Array as="points">
                            <mxPoint x="580" y="380"/>
                        </Array>
                    </mxGeometry>
                </mxCell>
                <mxCell id="H4EgMhZY4YwTOoACoMew-17" value="" style="html=1;verticalAlign=bottom;labelBackgroundColor=none;endArrow=block;endFill=1;exitX=0.75;exitY=1;exitDx=0;exitDy=0;entryX=1;entryY=0.5;entryDx=0;entryDy=0;dashed=1;curved=1;" parent="6k3I9Da40MqYxhiKzU5S-1" source="6k3I9Da40MqYxhiKzU5S-3" target="H4EgMhZY4YwTOoACoMew-10" edge="1">
                    <mxGeometry width="160" relative="1" as="geometry">
                        <mxPoint x="515" y="170" as="sourcePoint"/>
                        <mxPoint x="490" y="590" as="targetPoint"/>
                        <Array as="points">
                            <mxPoint x="570" y="390"/>
                        </Array>
                    </mxGeometry>
                </mxCell>
                <mxCell id="H4EgMhZY4YwTOoACoMew-18" value="" style="html=1;verticalAlign=bottom;labelBackgroundColor=none;endArrow=block;endFill=1;exitX=0.75;exitY=1;exitDx=0;exitDy=0;entryX=1;entryY=0.5;entryDx=0;entryDy=0;dashed=1;curved=1;" parent="6k3I9Da40MqYxhiKzU5S-1" source="6k3I9Da40MqYxhiKzU5S-3" target="3kuACH0IYjx14G8dIV5d-8" edge="1">
                    <mxGeometry width="160" relative="1" as="geometry">
                        <mxPoint x="515" y="170" as="sourcePoint"/>
                        <mxPoint x="490" y="510" as="targetPoint"/>
                        <Array as="points">
                            <mxPoint x="550" y="350"/>
                        </Array>
                    </mxGeometry>
                </mxCell>
                <mxCell id="H4EgMhZY4YwTOoACoMew-19" value="" style="html=1;verticalAlign=bottom;labelBackgroundColor=none;endArrow=block;endFill=1;exitX=0.75;exitY=1;exitDx=0;exitDy=0;entryX=1;entryY=0.5;entryDx=0;entryDy=0;dashed=1;curved=1;" parent="6k3I9Da40MqYxhiKzU5S-1" source="6k3I9Da40MqYxhiKzU5S-3" target="FsSBydXHaxrfXErNBL3K-3" edge="1">
                    <mxGeometry width="160" relative="1" as="geometry">
                        <mxPoint x="515" y="170" as="sourcePoint"/>
                        <mxPoint x="490" y="430" as="targetPoint"/>
                        <Array as="points">
                            <mxPoint x="530" y="290"/>
                        </Array>
                    </mxGeometry>
                </mxCell>
                <mxCell id="H4EgMhZY4YwTOoACoMew-20" value="" style="html=1;verticalAlign=bottom;labelBackgroundColor=none;endArrow=block;endFill=1;entryX=1;entryY=0.5;entryDx=0;entryDy=0;dashed=1;exitX=0.75;exitY=1;exitDx=0;exitDy=0;" parent="6k3I9Da40MqYxhiKzU5S-1" source="6k3I9Da40MqYxhiKzU5S-3" target="FsSBydXHaxrfXErNBL3K-1" edge="1">
                    <mxGeometry width="160" relative="1" as="geometry">
                        <mxPoint x="685" y="170" as="sourcePoint"/>
                        <mxPoint x="730" y="270" as="targetPoint"/>
                    </mxGeometry>
                </mxCell>
                <mxCell id="H4EgMhZY4YwTOoACoMew-21" value="MethodDecl" style="shape=process2;fixedSize=1;size=5;fontStyle=1;" parent="6k3I9Da40MqYxhiKzU5S-1" vertex="1">
                    <mxGeometry x="920" y="460" width="140" height="40" as="geometry"/>
                </mxCell>
                <mxCell id="H4EgMhZY4YwTOoACoMew-22" value="" style="html=1;verticalAlign=bottom;labelBackgroundColor=none;endArrow=block;endFill=1;exitX=1;exitY=0.5;exitDx=0;exitDy=0;entryX=0;entryY=0.5;entryDx=0;entryDy=0;dashed=1;" parent="6k3I9Da40MqYxhiKzU5S-1" source="H4EgMhZY4YwTOoACoMew-12" target="H4EgMhZY4YwTOoACoMew-21" edge="1">
                    <mxGeometry width="160" relative="1" as="geometry">
                        <mxPoint x="635" y="90" as="sourcePoint"/>
                        <mxPoint x="720" y="130" as="targetPoint"/>
                    </mxGeometry>
                </mxCell>
                <mxCell id="H4EgMhZY4YwTOoACoMew-23" value="" style="html=1;verticalAlign=bottom;labelBackgroundColor=none;endArrow=block;endFill=1;exitX=1;exitY=0.5;exitDx=0;exitDy=0;entryX=0;entryY=0.5;entryDx=0;entryDy=0;dashed=1;" parent="6k3I9Da40MqYxhiKzU5S-1" source="H4EgMhZY4YwTOoACoMew-12" target="H4EgMhZY4YwTOoACoMew-0" edge="1">
                    <mxGeometry width="160" relative="1" as="geometry">
                        <mxPoint x="870" y="510" as="sourcePoint"/>
                        <mxPoint x="930" y="570" as="targetPoint"/>
                    </mxGeometry>
                </mxCell>
                <mxCell id="H4EgMhZY4YwTOoACoMew-24" value="Return" style="shape=process2;fixedSize=1;size=5;fontStyle=1;" parent="6k3I9Da40MqYxhiKzU5S-1" vertex="1">
                    <mxGeometry x="720" y="640" width="140" height="40" as="geometry"/>
                </mxCell>
                <mxCell id="H4EgMhZY4YwTOoACoMew-25" value="" style="html=1;verticalAlign=bottom;labelBackgroundColor=none;endArrow=block;endFill=1;dashed=1;exitX=0.25;exitY=1;exitDx=0;exitDy=0;entryX=0;entryY=0.5;entryDx=0;entryDy=0;curved=1;" parent="6k3I9Da40MqYxhiKzU5S-1" source="3kuACH0IYjx14G8dIV5d-5" target="H4EgMhZY4YwTOoACoMew-24" edge="1">
                    <mxGeometry width="160" relative="1" as="geometry">
                        <mxPoint x="685" y="170" as="sourcePoint"/>
                        <mxPoint x="730" y="590" as="targetPoint"/>
                        <Array as="points">
                            <mxPoint x="620" y="360"/>
                        </Array>
                    </mxGeometry>
                </mxCell>
                <mxCell id="H4EgMhZY4YwTOoACoMew-26" value="StructDecl" style="shape=process2;fixedSize=1;size=5;fontStyle=1;" parent="6k3I9Da40MqYxhiKzU5S-1" vertex="1">
                    <mxGeometry x="920" y="580" width="140" height="40" as="geometry"/>
                </mxCell>
                <mxCell id="H4EgMhZY4YwTOoACoMew-27" value="" style="html=1;verticalAlign=bottom;labelBackgroundColor=none;endArrow=block;endFill=1;exitX=1;exitY=0.5;exitDx=0;exitDy=0;entryX=0;entryY=0.5;entryDx=0;entryDy=0;dashed=1;" parent="6k3I9Da40MqYxhiKzU5S-1" source="H4EgMhZY4YwTOoACoMew-12" target="H4EgMhZY4YwTOoACoMew-26" edge="1">
                    <mxGeometry width="160" relative="1" as="geometry">
                        <mxPoint x="870" y="510" as="sourcePoint"/>
                        <mxPoint x="930" y="550" as="targetPoint"/>
                    </mxGeometry>
                </mxCell>
                <mxCell id="OV_--EOfFpZfY1GpwCO8-0" value="StrVal" style="shape=process2;fixedSize=1;size=5;fontStyle=1;" parent="6k3I9Da40MqYxhiKzU5S-1" vertex="1">
                    <mxGeometry x="140" y="320" width="140" height="40" as="geometry"/>
                </mxCell>
                <mxCell id="OV_--EOfFpZfY1GpwCO8-1" value="" style="html=1;verticalAlign=bottom;labelBackgroundColor=none;endArrow=block;endFill=1;exitX=0.25;exitY=1;exitDx=0;exitDy=0;entryX=1;entryY=0.5;entryDx=0;entryDy=0;dashed=1;curved=1;" parent="6k3I9Da40MqYxhiKzU5S-1" source="6k3I9Da40MqYxhiKzU5S-3" target="OV_--EOfFpZfY1GpwCO8-0" edge="1">
                    <mxGeometry width="160" relative="1" as="geometry">
                        <mxPoint x="445" y="170" as="sourcePoint"/>
                        <mxPoint x="220" y="250" as="targetPoint"/>
                        <Array as="points">
                            <mxPoint x="320" y="210"/>
                            <mxPoint x="310" y="340"/>
                        </Array>
                    </mxGeometry>
                </mxCell>
                <mxCell id="YFdvBvieZpW2warODszZ-0" value="VarDecl" style="shape=process2;fixedSize=1;size=5;fontStyle=1;" parent="6k3I9Da40MqYxhiKzU5S-1" vertex="1">
                    <mxGeometry x="920" y="520" width="140" height="40" as="geometry"/>
                </mxCell>
                <mxCell id="YFdvBvieZpW2warODszZ-1" value="" style="html=1;verticalAlign=bottom;labelBackgroundColor=none;endArrow=block;endFill=1;exitX=1;exitY=0.5;exitDx=0;exitDy=0;entryX=0;entryY=0.5;entryDx=0;entryDy=0;dashed=1;" parent="6k3I9Da40MqYxhiKzU5S-1" source="H4EgMhZY4YwTOoACoMew-12" target="YFdvBvieZpW2warODszZ-0" edge="1">
                    <mxGeometry width="160" relative="1" as="geometry">
                        <mxPoint x="870" y="510" as="sourcePoint"/>
                        <mxPoint x="930" y="490" as="targetPoint"/>
                    </mxGeometry>
                </mxCell>
                <mxCell id="YFdvBvieZpW2warODszZ-2" value="FieldDecl" style="shape=process2;fixedSize=1;size=5;fontStyle=1;" parent="6k3I9Da40MqYxhiKzU5S-1" vertex="1">
                    <mxGeometry x="920" y="640" width="140" height="40" as="geometry"/>
                </mxCell>
                <mxCell id="YFdvBvieZpW2warODszZ-3" value="" style="html=1;verticalAlign=bottom;labelBackgroundColor=none;endArrow=block;endFill=1;exitX=1;exitY=0.5;exitDx=0;exitDy=0;entryX=0;entryY=0.5;entryDx=0;entryDy=0;dashed=1;" parent="6k3I9Da40MqYxhiKzU5S-1" source="H4EgMhZY4YwTOoACoMew-12" target="YFdvBvieZpW2warODszZ-2" edge="1">
                    <mxGeometry width="160" relative="1" as="geometry">
                        <mxPoint x="870" y="510" as="sourcePoint"/>
                        <mxPoint x="930" y="610" as="targetPoint"/>
                    </mxGeometry>
                </mxCell>
                <mxCell id="YFdvBvieZpW2warODszZ-4" value="Access" style="shape=process2;fixedSize=1;size=5;fontStyle=1;" parent="6k3I9Da40MqYxhiKzU5S-1" vertex="1">
                    <mxGeometry x="340" y="640" width="140" height="40" as="geometry"/>
                </mxCell>
                <mxCell id="YFdvBvieZpW2warODszZ-5" value="" style="html=1;verticalAlign=bottom;labelBackgroundColor=none;endArrow=block;endFill=1;exitX=0.75;exitY=1;exitDx=0;exitDy=0;entryX=1;entryY=0.5;entryDx=0;entryDy=0;dashed=1;curved=1;" parent="6k3I9Da40MqYxhiKzU5S-1" source="6k3I9Da40MqYxhiKzU5S-3" target="YFdvBvieZpW2warODszZ-4" edge="1">
                    <mxGeometry width="160" relative="1" as="geometry">
                        <mxPoint x="515" y="170" as="sourcePoint"/>
                        <mxPoint x="490" y="590" as="targetPoint"/>
                        <Array as="points">
                            <mxPoint x="600" y="390"/>
                        </Array>
                    </mxGeometry>
                </mxCell>
            </root>
        </mxGraphModel>
    </diagram>
</mxfile>